<mxfile host="app.diagrams.net" modified="2022-05-26T10:37:18.157Z" agent="5.0 (Windows)" etag="tm-Z0nlNDmHGSqoYkVtD" version="18.0.7" type="github">
  <diagram id="m_nR0PdyG6PDu9-NMIvH" name="第 1 页">
    <mxGraphModel dx="1422" dy="752" grid="1" gridSize="10" guides="1" tooltips="1" connect="1" arrows="1" fold="1" page="1" pageScale="1" pageWidth="827" pageHeight="1169" math="0" shadow="0">
      <root>
        <mxCell id="0" />
        <mxCell id="1" parent="0" />
        <mxCell id="xHBoMT_sCPoMEkBvIQ8g-31" style="rounded=0;orthogonalLoop=1;jettySize=auto;html=1;" edge="1" parent="1" source="xHBoMT_sCPoMEkBvIQ8g-1" target="xHBoMT_sCPoMEkBvIQ8g-29">
          <mxGeometry relative="1" as="geometry" />
        </mxCell>
        <mxCell id="xHBoMT_sCPoMEkBvIQ8g-32" value="投递简历到企业职位" style="edgeLabel;html=1;align=center;verticalAlign=middle;resizable=0;points=[];" vertex="1" connectable="0" parent="xHBoMT_sCPoMEkBvIQ8g-31">
          <mxGeometry x="0.0421" y="12" relative="1" as="geometry">
            <mxPoint as="offset" />
          </mxGeometry>
        </mxCell>
        <mxCell id="xHBoMT_sCPoMEkBvIQ8g-1" value="党组织" style="shape=umlActor;verticalLabelPosition=bottom;verticalAlign=top;html=1;outlineConnect=0;" vertex="1" parent="1">
          <mxGeometry x="580" y="140" width="30" height="60" as="geometry" />
        </mxCell>
        <mxCell id="xHBoMT_sCPoMEkBvIQ8g-15" style="edgeStyle=orthogonalEdgeStyle;rounded=0;orthogonalLoop=1;jettySize=auto;html=1;" edge="1" parent="1" source="xHBoMT_sCPoMEkBvIQ8g-3" target="xHBoMT_sCPoMEkBvIQ8g-21">
          <mxGeometry relative="1" as="geometry">
            <mxPoint x="294" y="270" as="targetPoint" />
          </mxGeometry>
        </mxCell>
        <mxCell id="xHBoMT_sCPoMEkBvIQ8g-27" style="rounded=0;orthogonalLoop=1;jettySize=auto;html=1;entryX=0;entryY=0.5;entryDx=0;entryDy=0;" edge="1" parent="1" target="xHBoMT_sCPoMEkBvIQ8g-29">
          <mxGeometry relative="1" as="geometry">
            <mxPoint x="80" y="230" as="sourcePoint" />
            <mxPoint x="220" y="450" as="targetPoint" />
          </mxGeometry>
        </mxCell>
        <mxCell id="xHBoMT_sCPoMEkBvIQ8g-28" value="收藏人才市场简历" style="edgeLabel;html=1;align=center;verticalAlign=middle;resizable=0;points=[];" vertex="1" connectable="0" parent="xHBoMT_sCPoMEkBvIQ8g-27">
          <mxGeometry x="-0.4961" y="32" relative="1" as="geometry">
            <mxPoint as="offset" />
          </mxGeometry>
        </mxCell>
        <mxCell id="xHBoMT_sCPoMEkBvIQ8g-3" value="企业" style="shape=umlActor;verticalLabelPosition=bottom;verticalAlign=top;html=1;outlineConnect=0;" vertex="1" parent="1">
          <mxGeometry x="60" y="240" width="30" height="60" as="geometry" />
        </mxCell>
        <mxCell id="xHBoMT_sCPoMEkBvIQ8g-18" style="edgeStyle=orthogonalEdgeStyle;rounded=0;orthogonalLoop=1;jettySize=auto;html=1;" edge="1" parent="1" source="xHBoMT_sCPoMEkBvIQ8g-4" target="xHBoMT_sCPoMEkBvIQ8g-22">
          <mxGeometry relative="1" as="geometry">
            <mxPoint x="470" y="440" as="targetPoint" />
          </mxGeometry>
        </mxCell>
        <mxCell id="xHBoMT_sCPoMEkBvIQ8g-33" style="rounded=0;orthogonalLoop=1;jettySize=auto;html=1;entryX=0.25;entryY=1;entryDx=0;entryDy=0;entryPerimeter=0;" edge="1" parent="1" source="xHBoMT_sCPoMEkBvIQ8g-4" target="xHBoMT_sCPoMEkBvIQ8g-29">
          <mxGeometry relative="1" as="geometry">
            <mxPoint x="614" y="529.9933734939759" as="sourcePoint" />
            <mxPoint x="270" y="300" as="targetPoint" />
          </mxGeometry>
        </mxCell>
        <mxCell id="xHBoMT_sCPoMEkBvIQ8g-34" value="投递简历" style="edgeLabel;html=1;align=center;verticalAlign=middle;resizable=0;points=[];" vertex="1" connectable="0" parent="xHBoMT_sCPoMEkBvIQ8g-33">
          <mxGeometry x="0.0883" y="4" relative="1" as="geometry">
            <mxPoint x="64" y="-96" as="offset" />
          </mxGeometry>
        </mxCell>
        <mxCell id="xHBoMT_sCPoMEkBvIQ8g-37" style="rounded=0;orthogonalLoop=1;jettySize=auto;html=1;exitX=0.5;exitY=0;exitDx=0;exitDy=0;exitPerimeter=0;" edge="1" parent="1" source="xHBoMT_sCPoMEkBvIQ8g-4">
          <mxGeometry relative="1" as="geometry">
            <mxPoint x="653" y="584.307917888563" as="sourcePoint" />
            <mxPoint x="380" y="260" as="targetPoint" />
          </mxGeometry>
        </mxCell>
        <mxCell id="xHBoMT_sCPoMEkBvIQ8g-39" value="推荐到企业" style="edgeLabel;html=1;align=center;verticalAlign=middle;resizable=0;points=[];" vertex="1" connectable="0" parent="xHBoMT_sCPoMEkBvIQ8g-37">
          <mxGeometry x="0.1143" y="4" relative="1" as="geometry">
            <mxPoint x="-81" y="7" as="offset" />
          </mxGeometry>
        </mxCell>
        <mxCell id="xHBoMT_sCPoMEkBvIQ8g-4" value="园区管理员" style="shape=umlActor;verticalLabelPosition=bottom;verticalAlign=top;html=1;outlineConnect=0;" vertex="1" parent="1">
          <mxGeometry x="510" y="510" width="30" height="60" as="geometry" />
        </mxCell>
        <mxCell id="xHBoMT_sCPoMEkBvIQ8g-16" value="添加职位" style="text;html=1;align=center;verticalAlign=middle;resizable=0;points=[];autosize=1;strokeColor=none;fillColor=none;" vertex="1" parent="1">
          <mxGeometry x="110" y="330" width="60" height="20" as="geometry" />
        </mxCell>
        <mxCell id="xHBoMT_sCPoMEkBvIQ8g-19" value="添加简历" style="text;html=1;align=center;verticalAlign=middle;resizable=0;points=[];autosize=1;strokeColor=none;fillColor=none;" vertex="1" parent="1">
          <mxGeometry x="460" y="550" width="60" height="20" as="geometry" />
        </mxCell>
        <mxCell id="xHBoMT_sCPoMEkBvIQ8g-21" value="职位广场" style="ellipse;whiteSpace=wrap;html=1;" vertex="1" parent="1">
          <mxGeometry x="15" y="490" width="120" height="80" as="geometry" />
        </mxCell>
        <mxCell id="xHBoMT_sCPoMEkBvIQ8g-22" value="人才市场" style="ellipse;whiteSpace=wrap;html=1;" vertex="1" parent="1">
          <mxGeometry x="190" y="620" width="120" height="80" as="geometry" />
        </mxCell>
        <mxCell id="xHBoMT_sCPoMEkBvIQ8g-26" value="投递简历" style="text;html=1;align=center;verticalAlign=middle;resizable=0;points=[];autosize=1;strokeColor=none;fillColor=none;" vertex="1" parent="1">
          <mxGeometry x="660" y="190" width="60" height="20" as="geometry" />
        </mxCell>
        <mxCell id="xHBoMT_sCPoMEkBvIQ8g-29" value="企业简历库" style="ellipse;whiteSpace=wrap;html=1;" vertex="1" parent="1">
          <mxGeometry x="250" y="190" width="120" height="80" as="geometry" />
        </mxCell>
      </root>
    </mxGraphModel>
  </diagram>
</mxfile>
